<mxfile host="app.diagrams.net" agent="Mozilla/5.0 (Windows NT 10.0; Win64; x64) AppleWebKit/537.36 (KHTML, like Gecko) Chrome/136.0.0.0 Safari/537.36" version="27.0.5">
  <diagram name="第 1 页" id="Y7QOJx2r_tzYW9NVxo1p">
    <mxGraphModel dx="653" dy="359" grid="0" gridSize="10" guides="1" tooltips="1" connect="1" arrows="1" fold="1" page="1" pageScale="1" pageWidth="827" pageHeight="1169" math="0" shadow="0">
      <root>
        <mxCell id="0" />
        <mxCell id="1" parent="0" />
        <mxCell id="SlckpqN3JJYEH6s-8-F8-2" value="&lt;span&gt;&lt;font face=&quot;Times New Roman&quot;&gt;You are a helpful assistant. Now the user asks you to solve a problem. &lt;b&gt;&lt;font style=&quot;color: rgb(255, 181, 112);&quot;&gt;Adaptively &lt;/font&gt;&lt;/b&gt;choose one of the following three cognitive modes to solve the problem: (1) Based on intuition, directly output the answer in &lt;b&gt;&lt;font style=&quot;color: rgb(234, 107, 102);&quot;&gt;&amp;lt;answer&amp;gt;&amp;lt;/answer&amp;gt;&lt;/font&gt;&lt;/b&gt; tags. (2) Perform understanding and analysis of the social context, then provide the user with the answer. Please output the social context understanding and analysis in &lt;b&gt;&lt;font style=&quot;color: rgb(103, 171, 159);&quot;&gt;&amp;lt;social context understanding&amp;gt; &amp;lt;/social context understanding&amp;gt;&lt;/font&gt;&lt;/b&gt; and final answer in &lt;b&gt;&lt;font style=&quot;color: rgb(234, 107, 102);&quot;&gt;&amp;lt;answer&amp;gt; &amp;lt;/answer&amp;gt;&lt;/font&gt;&lt;/b&gt; tags. (3) Carefully think about the problem, then provides the user with the answer. Please output the thinking process in &lt;b&gt;&lt;font style=&quot;color: rgb(181, 115, 157);&quot;&gt;&amp;lt;think&amp;gt; &amp;lt;/think&amp;gt;&lt;/font&gt;&lt;/b&gt; and final answer in &lt;b&gt;&lt;font style=&quot;color: rgb(234, 107, 102);&quot;&gt;&amp;lt;answer&amp;gt; &amp;lt;/answer&amp;gt;&lt;/font&gt;&lt;/b&gt; tags.&lt;/font&gt;&lt;/span&gt;" style="rounded=1;whiteSpace=wrap;html=1;align=center;fillColor=#DDEBFF;strokeColor=#85AFEB;arcSize=8;" parent="1" vertex="1">
          <mxGeometry x="59.5" y="146" width="496" height="119" as="geometry" />
        </mxCell>
        <mxCell id="SlckpqN3JJYEH6s-8-F8-3" value="然后还会响应输出 对应这个instruction prompt 有三种模式的输出 就是在一个矩形里&amp;nbsp;&lt;div&gt;有&amp;lt;anwer&amp;gt;&amp;lt;/answer&amp;gt;包裹的&amp;nbsp;&lt;/div&gt;&lt;div&gt;有 &amp;lt;social context understanding&amp;gt; &amp;lt;/social context understanding&amp;gt; + &amp;lt;answer&amp;gt; &amp;lt;/answer&amp;gt; 包裹的&amp;nbsp;&lt;/div&gt;&lt;div&gt;还有&amp;lt;think&amp;gt; &amp;lt;/think&amp;gt;  &amp;lt;answer&amp;gt; &amp;lt;/answer&amp;gt; 包裹的&amp;nbsp;&lt;/div&gt;&lt;div&gt;这些输出也放到一个矩形里 附录里的case那种感觉&amp;nbsp;&lt;/div&gt;" style="rounded=1;whiteSpace=wrap;html=1;align=center;fillColor=#DDEBFF;strokeColor=#85AFEB;" parent="1" vertex="1">
          <mxGeometry x="32" y="19" width="542" height="119" as="geometry" />
        </mxCell>
        <mxCell id="SlckpqN3JJYEH6s-8-F8-4" value="" style="rounded=1;whiteSpace=wrap;html=1;fillColor=#f8cecc;strokeColor=#b85450;" parent="1" vertex="1">
          <mxGeometry x="59" y="309" width="497" height="38" as="geometry" />
        </mxCell>
        <mxCell id="SlckpqN3JJYEH6s-8-F8-5" value="" style="rounded=1;whiteSpace=wrap;html=1;fillColor=#d5e8d4;strokeColor=#82b366;" parent="1" vertex="1">
          <mxGeometry x="59" y="349" width="497" height="36" as="geometry" />
        </mxCell>
        <mxCell id="SlckpqN3JJYEH6s-8-F8-6" value="" style="rounded=1;whiteSpace=wrap;html=1;fillColor=#e1d5e7;strokeColor=#9673a6;" parent="1" vertex="1">
          <mxGeometry x="59" y="272" width="497" height="35" as="geometry" />
        </mxCell>
        <mxCell id="SlckpqN3JJYEH6s-8-F8-7" value="&lt;span&gt;&lt;font face=&quot;Times New Roman&quot;&gt;You are a helpful assistant. Now the user asks you to solve a problem. &lt;b&gt;&lt;font style=&quot;color: rgb(255, 181, 112);&quot;&gt;Adaptively &lt;/font&gt;&lt;/b&gt;choose one of the following three cognitive modes to solve the problem: (1) Based on intuition, directly output the answer in &lt;b&gt;&lt;font style=&quot;color: rgb(234, 107, 102);&quot;&gt;&amp;lt;answer&amp;gt;&amp;lt;/answer&amp;gt;&lt;/font&gt;&lt;/b&gt; tags. (2) Perform understanding and analysis of the social context, then provide the user with the answer. Please output the social context understanding and analysis in &lt;font&gt;&lt;b style=&quot;&quot;&gt;&lt;font style=&quot;color: rgb(181, 115, 157);&quot;&gt;&amp;lt;social context understanding&amp;gt; &amp;lt;/social context understanding&amp;gt;&lt;/font&gt;&lt;/b&gt; &lt;/font&gt;and final answer in &lt;font style=&quot;color: rgb(181, 115, 157);&quot;&gt;&lt;b style=&quot;&quot;&gt;&lt;font&gt;&amp;lt;answer&amp;gt; &amp;lt;/answer&amp;gt;&lt;/font&gt;&lt;/b&gt; &lt;/font&gt;tags. (3) Carefully think about the problem, then provides the user with the answer. Please output the thinking process in &lt;b&gt;&lt;font style=&quot;color: rgb(126, 166, 224);&quot;&gt;&amp;lt;think&amp;gt; &amp;lt;/think&amp;gt;&lt;/font&gt;&lt;/b&gt; and final answer in &lt;font&gt;&lt;b style=&quot;&quot;&gt;&lt;font style=&quot;color: rgb(126, 166, 224);&quot;&gt;&amp;lt;answer&amp;gt; &amp;lt;/answer&amp;gt;&lt;/font&gt;&lt;/b&gt; &lt;/font&gt;tags.&lt;/font&gt;&lt;/span&gt;" style="rounded=1;whiteSpace=wrap;html=1;align=center;fillColor=#d5e8d4;strokeColor=#82b366;arcSize=8;" parent="1" vertex="1">
          <mxGeometry x="600" y="146" width="496" height="119" as="geometry" />
        </mxCell>
        <mxCell id="Q2Zf6GwyDy19mk7-73BU-1" value="&lt;div style=&quot;line-height: 100%;&quot;&gt;&lt;p style=&quot;margin-bottom: 0pt; margin-left: 0in; unicode-bidi: embed; word-break: normal;&quot;&gt;&lt;font style=&quot;font-size: 10px; line-height: 10px;&quot; face=&quot;Calibri&quot;&gt;&lt;b&gt;&lt;i&gt;Story: At a birthday party, Wen Qing&amp;nbsp;&lt;/i&gt;&lt;/b&gt;&lt;/font&gt;&lt;b style=&quot;font-size: 10px; color: rgb(0, 176, 240); font-family: Calibri; background-color: transparent; line-height: 10px;&quot;&gt;&lt;i&gt;pretends to be a superhero and says, “I am a wise and powerful superhero!”. Her&amp;nbsp;&lt;/i&gt;&lt;/b&gt;&lt;b style=&quot;font-size: 10px; color: rgb(0, 176, 240); font-family: Calibri; background-color: transparent; line-height: 10px;&quot;&gt;&lt;i&gt;friends all watch happily.&lt;/i&gt;&lt;/b&gt;&lt;/p&gt;&lt;p style=&quot;margin-bottom: 0pt; margin-left: 0in; unicode-bidi: embed; word-break: normal;&quot;&gt;&lt;b style=&quot;font-size: 10px; color: rgb(0, 176, 240); font-family: Calibri; background-color: transparent; line-height: 10px;&quot;&gt;&lt;i&gt;Question: Why does Wen Qing say this?&lt;/i&gt;&lt;/b&gt;&lt;/p&gt;&lt;p style=&quot;margin-bottom: 0pt; margin-left: 0in; unicode-bidi: embed; word-break: normal;&quot;&gt;&lt;font style=&quot;font-size: 10px; line-height: 10px;&quot; face=&quot;Calibri&quot;&gt;&lt;b&gt;&lt;i&gt;Answer:&amp;nbsp; (A)&amp;nbsp;&lt;/i&gt;&lt;/b&gt;&lt;/font&gt;&lt;b style=&quot;font-size: 10px; color: rgb(0, 176, 240); font-family: Calibri; background-color: transparent; line-height: 10px;&quot;&gt;&lt;i&gt;Wen Qing misunderstands that she is a wise and powerful superhero. (B) Wen Qing&amp;nbsp;&lt;/i&gt;&lt;/b&gt;&lt;b style=&quot;font-size: 10px; color: rgb(0, 176, 240); font-family: Calibri; background-color: transparent; line-height: 10px;&quot;&gt;&lt;i&gt;lies because she wants to make her friends happy. (C) Wen Qing says this&amp;nbsp;&lt;/i&gt;&lt;/b&gt;&lt;b style=&quot;font-size: 10px; color: rgb(0, 176, 240); font-family: Calibri; background-color: transparent; line-height: 10px;&quot;&gt;&lt;i&gt;because she is a real superhero. (D)&amp;nbsp;&lt;/i&gt;&lt;/b&gt;&lt;b style=&quot;font-size: 10px; color: rgb(0, 176, 240); font-family: Calibri; background-color: transparent; line-height: 10px;&quot;&gt;&lt;i&gt;Wen Qing plays the role of a superhero because she wants to make her friends&amp;nbsp;&lt;/i&gt;&lt;/b&gt;&lt;b style=&quot;font-size: 10px; color: rgb(0, 176, 240); font-family: Calibri; background-color: transparent; line-height: 10px;&quot;&gt;&lt;i&gt;happy.&lt;/i&gt;&lt;/b&gt;&lt;/p&gt;&lt;/div&gt;" style="rounded=1;whiteSpace=wrap;html=1;dashed=1;dashPattern=8 8;fillColor=#FFFFFF;strokeColor=#d79b00;arcSize=16;align=left;" vertex="1" parent="1">
          <mxGeometry x="66" y="468" width="443.75" height="128" as="geometry" />
        </mxCell>
      </root>
    </mxGraphModel>
  </diagram>
</mxfile>
